<svg id="SvgjsSvg1001" width="288" height="288" xmlns="http://www.w3.org/2000/svg" version="1.1" xmlns:xlink="http://www.w3.org/1999/xlink" xmlns:svgjs="http://svgjs.com/svgjs"><defs id="SvgjsDefs1002"></defs><g id="SvgjsG1008"><svg xmlns="http://www.w3.org/2000/svg" enable-background="new 0 0 500 500" viewBox="0 0 500 500" width="288" height="288"><path d="M238.7,305.5c0-2.2,0-3.6,0-5.1c0-67.7,0-135.5,0-203.2c0-2,0.1-4,0.6-5.9c1.6-5.6,6.9-9.1,12.5-8.6	c5.7,0.5,10.4,5.3,10.8,11.1c0.1,1.4,0,2.7,0,4.1c0,67.5,0,135,0,202.4c0,1.4,0,2.9,0,5.1c1.6-1.5,2.5-2.3,3.5-3.3
	c19.8-19.8,39.6-39.6,59.4-59.4c7.2-7.2,18.3-4.5,20.7,4.9c1.2,4.7-0.3,8.6-3.7,11.9c-10.2,10.1-20.3,20.3-30.5,30.5
	c-17.4,17.4-34.8,34.8-52.2,52.2c-5.7,5.7-12.6,5.8-18.2,0.2c-27.7-27.6-55.3-55.3-83-83c-3.5-3.5-4.9-7.5-3.5-12.3
	c1.3-4.5,4.3-7.3,8.8-8.4c4.8-1.2,8.7,0.7,12.1,4.1c19.7,19.7,39.4,39.4,59.1,59.1C236.2,303.2,237.2,304.1,238.7,305.5z" fill="#025e5e" class="color000 svgShape"></path><path d="M106.7,394.6c96.1,0,191.8,0,288,0c0-1.4,0-2.7,0-4c0-14.1,0-28.2,0-42.4c0-8,4.8-13.4,11.9-13.5c7.1,0,12,5.4,12.1,13.3
	c0,15.2,0,30.5,0,45.7c-0.1,14.5-10.3,24.9-24.7,24.9c-95.5,0-190.9,0-286.4,0c-14.5,0-24.8-10.4-24.8-24.8c-0.1-15.4,0-30.7,0-46.1
	c0-7.7,5-13,12-13c6.9,0,12,5.4,12,13C106.8,363.2,106.7,378.7,106.7,394.6z" fill="#025e5e" class="color000 svgShape"></path></svg></g></svg>